<svg height="488pt" viewBox="0 -52 488.0007 488" width="488pt" xmlns="http://www.w3.org/2000/svg" xmlns:xlink="http://www.w3.org/1999/xlink"><linearGradient id="a"><stop offset="0" stop-color="#00efd1"/><stop offset="1" stop-color="#00acea"/></linearGradient><linearGradient id="b" gradientUnits="userSpaceOnUse" x1="244.000351" x2="244.000351" xlink:href="#a" y1="-36.287508" y2="423.385492"/><linearGradient id="c" gradientUnits="userSpaceOnUse" x1="179.301351" x2="179.301351" xlink:href="#a" y1="-36.287508" y2="423.385492"/><linearGradient id="d" gradientUnits="userSpaceOnUse" x1="244.500351" x2="244.500351" xlink:href="#a" y1="-36.287508" y2="423.385492"/><linearGradient id="e" gradientUnits="userSpaceOnUse" x1="308.699351" x2="308.699351" xlink:href="#a" y1="-36.287508" y2="423.385492"/><path d="m427 51c0-4.417969-3.582031-8-8-8h-350c-4.417969 0-8 3.582031-8 8v216c0 4.417969 3.582031 8 8 8h350c4.417969 0 8-3.582031 8-8zm-16 208h-334v-200h334zm0 0" fill="url(#b)"/><path d="m480.3125 296h-13.3125v-247.609375c-.101562-26.800781-21.890625-48.453125-48.691406-48.390625h-348.617188c-26.800781-.0625-48.589844 21.589844-48.691406 48.390625v247.609375h-13.3125c-4.417969 0-7.6875 4-7.6875 8.414062v31.195313c-.046875 12.828125 5.015625 25.144531 14.074219 34.226563 9.054687 9.082031 21.359375 14.179687 34.183593 14.164062h391.484376c12.824218.015625 25.128906-5.082031 34.183593-14.164062 9.058594-9.082032 14.125-21.398438 14.074219-34.226563v-31.195313c0-4.414062-3.269531-8.414062-7.6875-8.414062zm-443.3125-247.609375c.09375-17.96875 14.726562-32.464844 32.691406-32.390625h348.617188c17.96875-.074219 32.597656 14.421875 32.691406 32.390625v247.609375h-147.480469c-2.261719.078125-4.390625 1.085938-5.882812 2.785156l-8.234375 8.828125c-6.183594 6.652344-14.867188 10.417969-23.949219 10.386719h-42.902344c-9.070312.070312-17.753906-3.660156-23.949219-10.285156l-8.234374-9.035156c-1.503907-1.671876-3.636719-2.640626-5.882813-2.679688h-147.484375zm435 287.21875c.054688 8.585937-3.324219 16.835937-9.378906 22.917969-6.058594 6.082031-14.296875 9.492187-22.878906 9.472656h-391.484376c-8.582031.019531-16.820312-3.390625-22.875-9.472656-6.058593-6.082032-9.4375-14.332032-9.382812-22.917969v-23.609375h164.976562l5.859376 6.351562c9.203124 9.964844 22.148437 15.632813 35.710937 15.648438h42.902344c13.5625-.015625 26.507812-5.683594 35.714843-15.648438l5.859376-6.351562h164.976562zm0 0" fill="url(#b)"/><path d="m157.851562 176h23.148438v10.453125c0 3.199219 4.101562 4.800781 8 4.800781s8-1.601562 8-4.800781v-10.453125h4.152344c2.398437 0 4.800781-3.898438 4.800781-7.5 0-3.597656-1.601563-7.5-4.800781-7.5h-4.152344v-6.550781c0-3.296875-4.101562-4.699219-8-4.699219s-8 1.402344-8 4.699219v6.550781h-8.347656l17.699218-35.277344c.292969-.554687.460938-1.164062.5-1.789062 0-3.597656-5.101562-5.84375-7.800781-5.84375-2.769531-.046875-5.3125 1.527344-6.5 4.03125l-23.097656 45.316406c-.511719.949219-.785156 2.003906-.800781 3.082031-.003906 3.5 2.296875 5.480469 5.199218 5.480469zm0 0" fill="url(#c)"/><path d="m244.449219 191.851562c13.800781 0 24.550781-6.398437 24.550781-23.597656v-26.5c0-17.199218-10.75-23.601562-24.550781-23.601562s-24.449219 6.402344-24.449219 23.601562v26.5c0 17.199219 10.648438 23.597656 24.449219 23.597656zm-9.449219-50.097656c0-6.902344 3.351562-10 8.949219-10 5.601562 0 9.050781 3.097656 9.050781 10v26.5c0 6.898438-3.449219 10-9.050781 10-5.597657 0-8.949219-3.101562-8.949219-10zm0 0" fill="url(#d)"/><path d="m287.25 176h23.75v10.453125c0 3.199219 3.601562 4.800781 7.5 4.800781s7.5-1.601562 7.5-4.800781v-10.453125h4.550781c2.398438 0 4.800781-3.898438 4.800781-7.5 0-3.597656-1.601562-7.5-4.800781-7.5h-4.550781v-6.550781c0-3.296875-3.601562-4.699219-7.5-4.699219s-7.5 1.402344-7.5 4.699219v6.550781h-8.949219l17.699219-35.277344c.292969-.554687.460938-1.164062.5-1.789062 0-3.597656-5.101562-5.84375-7.800781-5.84375-2.769531-.046875-5.3125 1.527344-6.5 4.03125l-23.101563 45.316406c-.507812.949219-.78125 2.003906-.796875 3.082031-.003906 3.5 2.296875 5.480469 5.199219 5.480469zm0 0" fill="url(#e)"/></svg>