<svg id="Layer_1" enable-background="new 0 0 512 512" height="512" viewBox="0 0 512 512" width="512" xmlns="http://www.w3.org/2000/svg"><g><g><g><path d="m128 432h-32c-44.183 0-80-35.817-80-80 0-44.183 35.817-80 80-80h32c44.183 0 80 35.817 80 80 0 44.183-35.817 80-80 80z" fill="#463c4b"/></g><g><circle cx="96" cy="352" fill="#555a6e" r="80"/></g><g><path d="m392 352v-144c0-88.365-71.634-160-160-160h48c88.365 0 160 71.634 160 160v144z" fill="#ff6e91"/></g><g><path d="m280 16c-106.039 0-192 85.961-192 192v144h32v-144c0-88.366 71.634-160 160-160 88.365 0 160 71.634 160 160v144h32v-144c0-106.039-85.961-192-192-192z" fill="#e64178"/></g><g><path d="m360 480h-72v-16h72c17.645 0 32-14.355 32-32h16c0 26.468-21.532 48-48 48z" fill="#a5c3dc"/></g><g><path d="m416 432h-32c-44.183 0-80-35.817-80-80 0-44.183 35.817-80 80-80h32c44.183 0 80 35.817 80 80 0 44.183-35.817 80-80 80z" fill="#463c4b"/></g><g><circle cx="384" cy="352" fill="#555a6e" r="80"/></g><g><circle cx="384" cy="352" fill="#463c4b" r="48"/></g><g><path d="m93.333 400h-29.333c-26.51 0-48-21.49-48-48 0-26.51 21.49-48 48-48h29.333c26.51 0 48 21.49 48 48 0 26.51-21.49 48-48 48z" fill="#e64178"/></g><g><path d="m40 208v144h48v-144c0-106.039 85.961-192 192-192h-48c-106.039 0-192 85.961-192 192z" fill="#ff6e91"/></g><g><path d="m272 448h-32c-8.837 0-16 7.163-16 16v16c0 8.837 7.163 16 16 16h32c8.837 0 16-7.163 16-16v-16c0-8.837-7.163-16-16-16z" fill="#00d2d2"/></g><g><path d="m240 496c8.837 0 16-7.163 16-16v-16h32v16c0 8.837-7.163 16-16 16z" fill="#289bc3"/></g><g><circle cx="64" cy="352" fill="#ff6e91" r="48"/></g><g><circle cx="64" cy="352" fill="#d7e6f0" r="24"/></g></g><g><path d="m256 112c-53.019 0-96 42.98-96 96s42.981 96 96 96h80c8.836 0 16-7.164 16-16v-80c0-53.02-42.981-96-96-96z" fill="#00d2d2"/></g><g><path d="m308 144h-28c-8.837 0-16 7.163-16 16v58.845c-6.389-7.243-15.999-11.578-26.594-10.743-15.788 1.245-28.448 14.207-29.352 30.018-1.055 18.462 13.55 33.775 31.759 33.879 17.86.102 32.187-14.838 32.187-32.698v-47.301c0-4.418 3.582-8 8-8h16c8.837 0 16-7.163 16-16v-20c0-2.209-1.791-4-4-4z" fill="#d7e6f0"/></g></g></svg>